<svg width="14" height="14" viewBox="0 0 14 14" fill="none" xmlns="http://www.w3.org/2000/svg">
<path fill-rule="evenodd" clip-rule="evenodd" d="M8.16029 1.82134C8.16029 2.42515 7.63805 2.91414 6.99458 2.91414C6.35052 2.91414 5.82887 2.42456 5.82887 1.82134C5.82887 1.21753 6.99458 0 6.99458 0C6.99458 0 8.16029 1.21811 8.16029 1.82134ZM0.268415 7.95094L1.35253 8.6445L2.3463 12.9533C2.37597 13.0818 2.44831 13.1964 2.55153 13.2785C2.65475 13.3605 2.78273 13.4051 2.91458 13.405H11.0746C11.2063 13.405 11.3342 13.3603 11.4373 13.2783C11.5404 13.1963 11.6126 13.0817 11.6423 12.9533L12.6366 8.6445L13.7202 7.95094C13.7865 7.91057 13.8441 7.85735 13.8896 7.79441C13.9351 7.73147 13.9675 7.66008 13.985 7.58442C14.0025 7.50877 14.0047 7.43038 13.9915 7.35386C13.9783 7.27735 13.9499 7.20424 13.908 7.13884C13.8662 7.07344 13.8117 7.01707 13.7477 6.97303C13.6837 6.92899 13.6116 6.89818 13.5356 6.8824C13.4596 6.86662 13.3811 6.86619 13.3049 6.88114C13.2287 6.89609 13.1563 6.92612 13.0918 6.96946L12.78 7.16878C12.5842 5.7834 11.3951 4.66262 9.89254 4.66262H7.57744V4.07979C7.57744 3.92522 7.51603 3.77698 7.40672 3.66767C7.29742 3.55837 7.14916 3.49697 6.99458 3.49697C6.84 3.49697 6.69175 3.55837 6.58244 3.66767C6.47313 3.77698 6.41172 3.92522 6.41172 4.07979V4.66262H4.09662C2.59401 4.66262 1.40499 5.7834 1.20915 7.16878L0.897317 6.96946C0.767158 6.88606 0.6092 6.85779 0.458193 6.89085C0.307186 6.92391 0.175498 7.01561 0.0921006 7.14576C0.00870296 7.27591 -0.0195735 7.43386 0.0134919 7.58486C0.0465572 7.73586 0.138256 7.86754 0.268415 7.95094ZM3.37854 12.2394L2.71292 9.35439C3.11375 9.46254 3.53307 9.48381 3.9428 9.41677C4.35252 9.34973 4.74319 9.19592 5.08864 8.96564L6.02529 8.34085C6.31251 8.1494 6.64998 8.04723 6.99516 8.04723C7.34035 8.04723 7.67782 8.1494 7.96504 8.34085L8.90169 8.96564C9.24714 9.19592 9.63781 9.34973 10.0475 9.41677C10.4573 9.48381 10.8766 9.46254 11.2774 9.35439L10.6106 12.2394H3.37854ZM9.89313 5.82828C10.1518 5.82835 10.4072 5.88579 10.641 5.99648C10.8747 6.10716 11.081 6.26832 11.245 6.46835C11.4089 6.66837 11.5265 6.90228 11.5891 7.15321C11.6518 7.40414 11.658 7.66585 11.6073 7.91947L11.461 8.0133C11.1749 8.19653 10.8417 8.29245 10.5019 8.28934C10.1622 8.28624 9.83076 8.18424 9.54808 7.99582L8.61143 7.37102C8.1327 7.05189 7.57022 6.8816 6.99487 6.8816C6.41952 6.8816 5.85704 7.05189 5.37832 7.37102L4.44167 7.9964C4.1591 8.18458 3.82787 8.28644 3.48838 8.28955C3.1489 8.29265 2.81586 8.19687 2.5299 8.01388L2.38244 7.92005C2.33164 7.66639 2.33777 7.40462 2.40038 7.15361C2.46299 6.90261 2.58052 6.66862 2.7445 6.46853C2.90847 6.26844 3.1148 6.10722 3.34862 5.9965C3.58244 5.88579 3.83791 5.82833 4.09662 5.82828H9.89313ZM5.24601 10.4909C5.24601 10.3363 5.1846 10.1881 5.0753 10.0788C4.96599 9.96948 4.81774 9.90807 4.66315 9.90807C4.50857 9.90807 4.36032 9.96948 4.25101 10.0788C4.14171 10.1881 4.0803 10.3363 4.0803 10.4909V11.0737C4.0803 11.2283 4.14171 11.3765 4.25101 11.4859C4.36032 11.5952 4.50857 11.6566 4.66315 11.6566C4.81774 11.6566 4.96599 11.5952 5.0753 11.4859C5.1846 11.3765 5.24601 11.2283 5.24601 11.0737V10.4909ZM7.57744 10.4909C7.57744 10.3363 7.51603 10.1881 7.40672 10.0788C7.29742 9.96948 7.14916 9.90807 6.99458 9.90807C6.84 9.90807 6.69175 9.96948 6.58244 10.0788C6.47313 10.1881 6.41172 10.3363 6.41172 10.4909V11.0737C6.41172 11.2283 6.47313 11.3765 6.58244 11.4859C6.69175 11.5952 6.84 11.6566 6.99458 11.6566C7.14916 11.6566 7.29742 11.5952 7.40672 11.4859C7.51603 11.3765 7.57744 11.2283 7.57744 11.0737V10.4909ZM9.90886 10.4909C9.90886 10.3363 9.84746 10.1881 9.73815 10.0788C9.62884 9.96948 9.48059 9.90807 9.32601 9.90807C9.17142 9.90807 9.02317 9.96948 8.91387 10.0788C8.80456 10.1881 8.74315 10.3363 8.74315 10.4909V11.0737C8.74315 11.2283 8.80456 11.3765 8.91387 11.4859C9.02317 11.5952 9.17142 11.6566 9.32601 11.6566C9.48059 11.6566 9.62884 11.5952 9.73815 11.4859C9.84746 11.3765 9.90886 11.2283 9.90886 11.0737V10.4909Z" fill="#414042"/>
</svg>
