<svg width="16" height="15" viewBox="0 0 16 15" fill="none" xmlns="http://www.w3.org/2000/svg">
<path d="M15.1461 12.3047L12.376 7.23633C12.6722 6.57227 12.8204 5.87891 12.8204 5.15625C12.8204 4.21875 12.5858 3.35449 12.1167 2.56348C11.6476 1.77246 11.0131 1.14746 10.2132 0.688477C9.41324 0.229492 8.54418 0 7.60598 0C7.03319 0 6.48261 0.0878906 5.95426 0.263672C5.42591 0.439453 4.9494 0.686035 4.52474 1.00342C4.10009 1.3208 3.72481 1.68945 3.39891 2.10938C3.07301 2.5293 2.82364 3.00293 2.65082 3.53027C2.47799 4.05762 2.39158 4.59961 2.39158 5.15625C2.39158 5.41016 2.40886 5.65918 2.44343 5.90332C2.47799 6.14746 2.52984 6.38184 2.59897 6.60645C2.6681 6.83105 2.75204 7.05566 2.8508 7.28027L0.0658384 12.3047C-0.0329192 12.4805 -0.0205745 12.6489 0.102872 12.8101C0.226319 12.9712 0.3868 13.0273 0.584316 12.9785L2.96931 12.4512L3.78406 14.6924C3.85319 14.8779 3.99145 14.9805 4.19884 15H4.22847C4.41611 15 4.55437 14.917 4.64325 14.751L7.07269 10.2832C7.25045 10.3027 7.42822 10.3125 7.60598 10.3125C7.65536 10.3125 7.70721 10.3101 7.76152 10.3052C7.81584 10.3003 7.87016 10.2979 7.92447 10.2979C7.97879 10.2979 8.03557 10.293 8.09483 10.2832L10.5687 14.751C10.6576 14.917 10.7958 15 10.9835 15H11.0279C11.2254 14.9805 11.3588 14.8779 11.4279 14.6924L12.2426 12.4512L14.6276 12.9785C14.7165 13.0078 14.8054 13.0054 14.8943 12.9712C14.9832 12.937 15.0523 12.8857 15.1017 12.8174C15.2301 12.6514 15.2449 12.4805 15.1461 12.3047ZM4.31735 13.374L3.72481 11.7334C3.69518 11.665 3.65074 11.604 3.59148 11.5503C3.53223 11.4966 3.46557 11.46 3.3915 11.4404C3.31743 11.4209 3.24089 11.4209 3.16189 11.4404L1.39907 11.8359L3.41372 8.21777C4.10502 9.13574 4.99878 9.76074 6.09499 10.0928L4.31735 13.374ZM3.33965 5.15625C3.33965 3.99414 3.7569 3.00049 4.5914 2.17529C5.42591 1.3501 6.43076 0.9375 7.60598 0.9375C8.37629 0.9375 9.08734 1.12549 9.73914 1.50146C10.3909 1.87744 10.907 2.39014 11.2872 3.03955C11.6674 3.68896 11.8575 4.39453 11.8575 5.15625C11.8575 5.53711 11.8081 5.91064 11.7094 6.27686C11.6106 6.64307 11.4699 6.97998 11.2872 7.2876C11.1045 7.59521 10.8798 7.87842 10.6131 8.13721C10.3465 8.396 10.0576 8.61572 9.74655 8.79639C9.43546 8.97705 9.09722 9.11865 8.73182 9.22119C8.36641 9.32373 7.99113 9.375 7.60598 9.375C6.83567 9.375 6.12215 9.18457 5.46541 8.80371C4.80867 8.42285 4.29019 7.91016 3.90998 7.26562C3.52976 6.62109 3.33965 5.91797 3.33965 5.15625ZM12.0501 11.4404C11.9316 11.4111 11.8205 11.4258 11.7168 11.4844C11.6131 11.543 11.5365 11.626 11.4872 11.7334L10.8946 13.3887L9.07253 10.1074C9.62557 9.94141 10.1366 9.69482 10.6057 9.36768C11.0748 9.04053 11.4773 8.64746 11.8131 8.18848L13.8129 11.8359L12.0501 11.4404Z" fill="#414042"/>
</svg>
