<svg width="14" height="14" viewBox="0 0 14 14" fill="none" xmlns="http://www.w3.org/2000/svg">
<path d="M10.4999 2.61333C9.57166 1.68507 8.31267 1.16358 6.99992 1.16358C5.68716 1.16358 4.42818 1.68507 3.49992 2.61333C2.57166 3.54159 2.05017 4.80057 2.05017 6.11333C2.05017 7.42608 2.57166 8.68507 3.49992 9.61333L6.57408 12.6933C6.62831 12.748 6.69283 12.7914 6.76392 12.821C6.835 12.8506 6.91124 12.8659 6.98825 12.8659C7.06526 12.8659 7.1415 12.8506 7.21259 12.821C7.28367 12.7914 7.34819 12.748 7.40242 12.6933L10.4999 9.58416C11.4243 8.65977 11.9436 7.40603 11.9436 6.09875C11.9436 4.79146 11.4243 3.53772 10.4999 2.61333ZM9.66575 8.75L6.99992 11.4275L4.33408 8.75C3.80742 8.22285 3.44886 7.55139 3.30374 6.8205C3.15862 6.08961 3.23344 5.3321 3.51876 4.64373C3.80408 3.95535 4.28708 3.36702 4.9067 2.95311C5.52633 2.53919 6.25476 2.31827 6.99992 2.31827C7.74508 2.31827 8.47351 2.53919 9.09313 2.95311C9.71276 3.36702 10.1958 3.95535 10.4811 4.64373C10.7664 5.3321 10.8412 6.08961 10.6961 6.8205C10.551 7.55139 10.1924 8.22285 9.66575 8.75ZM5.24992 4.3225C4.779 4.79486 4.51457 5.43466 4.51457 6.10166C4.51457 6.76867 4.779 7.40846 5.24992 7.88083C5.59978 8.23129 6.04534 8.47063 6.53071 8.56881C7.01608 8.667 7.51964 8.61967 7.97821 8.43275C8.43678 8.24583 8.82994 7.92766 9.10837 7.51814C9.38679 7.10862 9.53808 6.626 9.54325 6.13083C9.54588 5.8002 9.48219 5.4724 9.35595 5.16681C9.2297 4.86121 9.04347 4.58404 8.80825 4.35166C8.57706 4.11517 8.30138 3.92673 7.99708 3.79718C7.69278 3.66764 7.36587 3.59956 7.03515 3.59685C6.70444 3.59414 6.37645 3.65685 6.07007 3.78139C5.76369 3.90593 5.48496 4.08982 5.24992 4.3225ZM7.98575 7.0525C7.76469 7.27693 7.47254 7.41761 7.15924 7.45048C6.84594 7.48335 6.53096 7.40637 6.26813 7.2327C6.00531 7.05904 5.81097 6.79947 5.71834 6.49838C5.62571 6.19729 5.64055 5.87337 5.76031 5.582C5.88007 5.29064 6.09733 5.04992 6.37493 4.90101C6.65253 4.7521 6.97323 4.70423 7.28221 4.76561C7.5912 4.82698 7.86927 4.99377 8.06888 5.23747C8.2685 5.48117 8.37726 5.78664 8.37658 6.10166C8.3681 6.46174 8.21704 6.80372 7.95658 7.0525H7.98575Z" fill="#414042"/>
</svg>
