<svg width="14" height="14" viewBox="0 0 14 14" fill="none" xmlns="http://www.w3.org/2000/svg">
<path d="M4.08337 3.5V6.41666C4.08337 6.57137 4.14483 6.71975 4.25423 6.82914C4.36362 6.93854 4.512 7 4.66671 7H6.41671V11.6667H5.25004C5.09533 11.6667 4.94696 11.7281 4.83756 11.8375C4.72817 11.9469 4.66671 12.0953 4.66671 12.25C4.66671 12.4047 4.72817 12.5531 4.83756 12.6625C4.94696 12.7719 5.09533 12.8333 5.25004 12.8333H8.75004C8.90475 12.8333 9.05312 12.7719 9.16252 12.6625C9.27192 12.5531 9.33337 12.4047 9.33337 12.25C9.33337 12.0953 9.27192 11.9469 9.16252 11.8375C9.05312 11.7281 8.90475 11.6667 8.75004 11.6667H7.58337V7H10.5C10.5872 7.00029 10.6733 6.98106 10.752 6.94371C10.8308 6.90636 10.9001 6.85184 10.955 6.78416L12.1217 5.32583C12.2045 5.22237 12.2497 5.09378 12.2497 4.96125C12.2497 4.82871 12.2045 4.70013 12.1217 4.59666L10.955 3.13833C10.9007 3.06958 10.8316 3.01396 10.7528 2.97558C10.6741 2.93721 10.5877 2.91707 10.5 2.91666H7.58337V1.75C7.58337 1.59529 7.52192 1.44691 7.41252 1.33752C7.30312 1.22812 7.15475 1.16666 7.00004 1.16666C6.84533 1.16666 6.69696 1.22812 6.58756 1.33752C6.47817 1.44691 6.41671 1.59529 6.41671 1.75V2.91666H4.66671C4.512 2.91666 4.36362 2.97812 4.25423 3.08752C4.14483 3.19691 4.08337 3.34529 4.08337 3.5ZM5.25004 4.08333H10.22L10.92 4.95833L10.22 5.83333H5.25004V4.08333Z" fill="#414042"/>
</svg>
